<?xml version="1.0" standalone="no"?><!DOCTYPE svg PUBLIC "-//W3C//DTD SVG 1.1//EN" "http://www.w3.org/Graphics/SVG/1.1/DTD/svg11.dtd"><svg t="1623254508253" class="icon" viewBox="0 0 1024 1024" version="1.1" xmlns="http://www.w3.org/2000/svg" p-id="13713" xmlns:xlink="http://www.w3.org/1999/xlink" width="48" height="48"><defs><style type="text/css"></style></defs><path d="M179.3 706.9c6.7-11.6 7.2-25.8 1.5-37.9-9.3-19.6-16.9-40.1-22.7-61.4-12.5-45.9-15.9-92.9-10.3-139.9 5.9-48.5 21.3-94.9 45.8-137.8s56.7-79.6 95.6-109.2c37.6-28.6 79.9-49.5 125.8-61.9s93-15.9 140-10.3c43.3 5.2 84.8 18.1 123.7 38.2l-11.2 19.6c-8.7 15.1 4.8 35.4 24.3 36.5l71.9 4 71.9 4c18.1 1 29.5-19 19.5-34.1l-39.9-60-39.9-60c-10.8-16.2-35.1-17.6-43.8-2.5l-12 21c-212.3-111.6-476.8-35.9-597 174C46.7 421.5 45.8 576.1 106.6 704c14.2 30 56.2 31.7 72.7 2.9zM843.4 316.5c-6.7 11.6-7.2 25.8-1.5 37.9 9.3 19.6 16.9 40.1 22.7 61.4 12.5 45.9 15.9 92.9 10.3 139.9-5.9 48.5-21.3 94.9-45.8 137.8-24.6 42.9-56.7 79.6-95.6 109.2-37.6 28.6-79.9 49.5-125.8 61.9-45.9 12.5-92.9 15.9-139.9 10.3-43.3-5.2-84.8-18.1-123.7-38.2l11.2-19.6c8.7-15.1-4.8-35.4-24.3-36.5l-71.9-4-71.9-4c-18.1-1-29.5 19-19.5 34.1l39.9 60 39.9 60c10.8 16.2 35.1 17.6 43.8 2.5l12-21c212.3 111.9 476.8 36.2 597-173.7 75.8-132.3 76.7-286.9 15.9-414.8-14.3-30.3-56.3-32-72.8-3.2z" p-id="13714" fill="#ffffff"></path></svg>