<?xml version="1.0" standalone="no"?><!DOCTYPE svg PUBLIC "-//W3C//DTD SVG 1.1//EN" "http://www.w3.org/Graphics/SVG/1.1/DTD/svg11.dtd"><svg t="1624543240332" class="icon" viewBox="0 0 1024 1024" version="1.1" xmlns="http://www.w3.org/2000/svg" p-id="8408" xmlns:xlink="http://www.w3.org/1999/xlink" width="48" height="48"><defs><style type="text/css"></style></defs><path d="M934.3 538.6C934.3 773 744.4 963 510 963S85.7 773 85.7 538.6s190-434.3 424.3-434.3 424.3 200 424.3 434.3z" fill="#EA382A" p-id="8409"></path><path d="M629.9 314.5c-46.8 72.3-104.5 118.2-129 102.4s-27.7-109.6 19.1-182c46.8-72.3 108-114.7 166-100-13.3 38.7 24.7 52.7-56.1 179.6z" fill="#74B13F" p-id="8410"></path><path d="M525 276h-28c-2.8 0-5-2.3-5-5V97.3c0-18.2 14.8-33 33-33 2.8 0 5 2.3 5 5V271c0 2.7-2.3 5-5 5z" fill="#384623" p-id="8411"></path><path d="M783.8 254c-43.4-43.8-112-51.4-163-16.9C591.2 257 553.5 269 512.3 269c-41.6 0-79.7-12.2-109.4-32.6-51.5-35.3-121-28.1-165.2 16.1C164.5 325.6 119 427.2 119 537.3c0 215.9 175 385 391 385s391-169 391-385C901 428 856.1 327 783.8 254z" fill="#FFFAE6" p-id="8412"></path><path d="M792.8 254c-43.4-43.8-112-51.4-163-16.9C600.2 257 562.5 269 521.3 269c-41.6 0-79.7-12.2-109.4-32.6-51.5-35.3-121-28.1-165.2 16.1C173.5 325.6 128 427.2 128 537.3c0 215.9 175 385 391 385s391-169 391-385C910 428 865.1 327 792.8 254z" fill="#FFFAE6" p-id="8413"></path><path d="M530 921.8l-17.9 0.5-20-0.4L492 268l20.1 1 17.9-0.7z" fill="#FCF2CF" p-id="8414"></path><path d="M613 592.7c0 129.2-73.5 233.9-101.3 233.9-27.8 0-91.7-50.7-108.7-241.7 0-129.2 80.8-226 108.7-226 27.8 0 101.3 104.7 101.3 233.8z" fill="#FCF2CF" p-id="8415"></path><path d="M468.951183 495.226364a23.6 9 44.999 1 0 12.7277-12.728144 23.6 9 44.999 1 0-12.7277 12.728144Z" fill="#605223" p-id="8416"></path><path d="M465.237945 560.13978a23.6 9 6.794 1 0 2.1294-17.873602 23.6 9 6.794 1 0-2.1294 17.873602Z" fill="#605223" p-id="8417"></path><path d="M442.855907 650.353622a9 23.6 83.12 1 0 46.860123-5.654102 9 23.6 83.12 1 0-46.860123 5.654102Z" fill="#605223" p-id="8418"></path><path d="M454.828252 744.868797a9 23.6 60 1 0 40.876399-23.6 9 23.6 60 1 0-40.876399 23.6Z" fill="#605223" p-id="8419"></path><path d="M554.790388 694.484798a23.6 9 15.83 1 0 4.910112-17.317355 23.6 9 15.83 1 0-4.910112 17.317355Z" fill="#605223" p-id="8420"></path><path d="MNaN NaNaNaN NaN NaN 1 0 NaN NaN NaN NaN NaN 1 0 NaN NaNZ" fill="#605223" p-id="8421"></path><path d="M528.707806 504.197686a9 23.6 49.5 1 0 35.891162-30.653947 9 23.6 49.5 1 0-35.891162 30.653947Z" fill="#605223" p-id="8422"></path></svg>