<?xml version="1.0" standalone="no"?><!DOCTYPE svg PUBLIC "-//W3C//DTD SVG 1.1//EN" "http://www.w3.org/Graphics/SVG/1.1/DTD/svg11.dtd"><svg t="1624543434872" class="icon" viewBox="0 0 1024 1024" version="1.1" xmlns="http://www.w3.org/2000/svg" p-id="19177" xmlns:xlink="http://www.w3.org/1999/xlink" width="48" height="48"><defs><style type="text/css"></style></defs><path d="M952.32 281.6l-2.011429 8.228571a502.308571 502.308571 0 0 1-14.262857 61.805715c-2.011429 6.582857-4.205714 12.8-6.217143 18.285714A482.011429 482.011429 0 0 1 9.508571 333.165714C7.497143 325.668571 5.668571 318.354286 4.205714 310.857143a25.051429 25.051429 0 0 1 7.497143-24.32 26.148571 26.148571 0 0 1 36.571429 0l3.84 3.474286c9.325714 8.777143 18.285714 17.188571 29.074285 25.051428 6.948571 6.034286 14.262857 11.702857 21.76 17.005714A606.354286 606.354286 0 0 0 201.142857 392.045714c5.302857 2.742857 10.422857 5.12 15.908572 7.314286a569.417143 569.417143 0 0 0 66.011428 24.685714 601.6 601.6 0 0 0 531.565714-88.502857l48.457143-39.68a128 128 0 0 0 10.422857-9.508571 94.72 94.72 0 0 0 20.114286-30.354286l32.914286 14.445714z" fill="#FBC02D" p-id="19178"></path><path d="M893.622857 256l32.914286 14.445714A531.748571 531.748571 0 0 1 307.931429 515.657143 529.188571 529.188571 0 0 1 36.571429 322.56c-8.411429-11.52-16.457143-23.588571-24.137143-36.571429a26.148571 26.148571 0 0 1 36.571428 0l3.84 3.474286c9.325714 8.777143 18.285714 17.188571 29.074286 25.051429 6.948571 6.034286 14.262857 11.702857 21.76 17.005714A606.354286 606.354286 0 0 0 201.142857 392.045714c5.302857 2.742857 10.422857 5.12 15.908572 7.314286a569.417143 569.417143 0 0 0 66.011428 24.685714 601.6 601.6 0 0 0 531.565714-88.502857l48.457143-39.68a128 128 0 0 0 10.422857-9.508571 94.72 94.72 0 0 0 20.114286-30.354286z" fill="#FFF176" p-id="19179"></path><path d="M51.565714 290.377143l-4.571428 14.811428a38.765714 38.765714 0 0 1-30.72 26.697143l-6.582857 1.097143q-3.291429-10.971429-5.485715-21.942857a25.051429 25.051429 0 0 1 7.497143-24.32 25.965714 25.965714 0 0 1 36.571429 0z" fill="#827717" p-id="19180"></path><path d="M1014.491429 196.205714c-25.782857 15.177143-49.371429 31.634286-57.417143 59.611429a88.502857 88.502857 0 0 0-2.377143 25.965714v17.737143a506.331429 506.331429 0 0 1 4.754286 67.108571v21.394286A510.72 510.72 0 0 1 16.091429 636.525714c-4.388571-6.765714-8.594286-13.714286-12.434286-20.662857a26.697143 26.697143 0 0 1 0-26.88 27.794286 27.794286 0 0 1 36.571428-11.337143 28.891429 28.891429 0 0 0 4.754286 2.377143l11.337143 5.302857 12.617143 5.668572c14.08 6.217143 28.342857 11.885714 42.971428 16.822857l14.445715 4.754286a570.697143 570.697143 0 0 0 66.377143 18.285714 536.868571 536.868571 0 0 0 54.857142 8.777143c8.045714 1.097143 16.274286 1.828571 24.502858 2.377143s19.565714 1.462857 29.44 1.828571h20.297142a637.44 637.44 0 0 0 510.902858-256l36.571428-54.857143c2.56-4.205714 5.12-8.411429 7.497143-12.982857a96.548571 96.548571 0 0 0 10.422857-36.571429 61.257143 61.257143 0 0 0 0.914286-11.52 102.948571 102.948571 0 0 0 0-10.605714c0-3.657143-0.914286-7.131429-1.645714-10.605714a93.622857 93.622857 0 0 0-2.742858-10.24c0-3.291429-2.194286-6.4-3.291428-9.508572a98.377143 98.377143 0 0 0-10.057143-18.285714 88.32 88.32 0 0 0-11.702857-13.714286c-11.885714-11.702857-23.771429-18.285714-25.782857-20.662857v-1.828571a1.645714 1.645714 0 0 1 1.097143 0H840.045714c12.251429 0 41.325714 0.914286 98.925715 1.645714h70.4a10.24 10.24 0 0 1 5.12 18.102857z" fill="#FBC02D" p-id="19181"></path><path d="M938.788571 177.005714a555.154286 555.154286 0 0 1-12.434285 106.605715 563.931429 563.931429 0 0 1-551.314286 444.891428 561.005714 561.005714 0 0 1-335.725714-110.811428c-12.251429-9.142857-24.32-18.285714-35.657143-28.708572a27.794286 27.794286 0 0 1 36.571428-11.337143 28.891429 28.891429 0 0 0 4.754286 2.377143l11.337143 5.302857 12.617143 5.668572c14.08 6.217143 28.342857 11.885714 42.971428 16.822857 4.754286 1.645714 9.508571 3.474286 14.445715 4.754286a570.697143 570.697143 0 0 0 66.377143 18.285714c18.285714 3.84 36.571429 6.582857 54.857142 8.777143 8.045714 1.097143 16.274286 1.828571 24.502858 2.377143s19.565714 1.462857 29.44 1.828571h20.297142a637.44 637.44 0 0 0 510.902858-256l36.571428-54.857143c2.56-4.205714 5.12-8.411429 7.497143-12.982857a96.548571 96.548571 0 0 0 10.422857-36.571429 61.257143 61.257143 0 0 0 0.914286-11.52 102.948571 102.948571 0 0 0 0-10.605714 98.742857 98.742857 0 0 0-1.645714-10.605714 93.622857 93.622857 0 0 0-2.742858-10.24 83.382857 83.382857 0 0 0-3.291428-9.508572 98.377143 98.377143 0 0 0-10.057143-18.285714 88.32 88.32 0 0 0-11.702857-13.714286c-11.885714-11.885714-23.771429-18.285714-25.782857-20.662857v-1.828571a1.645714 1.645714 0 0 1 1.097143 0H840.045714c12.068571-1.645714 41.142857-0.182857 98.742857 0.548571z" fill="#FFF176" p-id="19182"></path><path d="M45.165714 580.205714v16.457143a40.96 40.96 0 0 1-22.857143 36.571429l-6.217142 3.108571c-4.571429-6.765714-8.594286-13.714286-12.434286-20.662857a26.88 26.88 0 0 1 0-27.062857 27.611429 27.611429 0 0 1 36.571428-10.971429z" fill="#827717" p-id="19183"></path><path d="M832.731429 146.468571l191.268571 0 0 57.234286-191.268571 0 0-57.234286Z" fill="#C0CA33" p-id="19184"></path><path d="M832.731429 146.468571l191.268571 0 0 40.228572-191.268571 0 0-40.228572Z" fill="#F0F4C3" p-id="19185"></path></svg>