<?xml version="1.0" standalone="no"?><!DOCTYPE svg PUBLIC "-//W3C//DTD SVG 1.1//EN" "http://www.w3.org/Graphics/SVG/1.1/DTD/svg11.dtd"><svg t="1624543533008" class="icon" viewBox="0 0 1024 1024" version="1.1" xmlns="http://www.w3.org/2000/svg" p-id="28944" xmlns:xlink="http://www.w3.org/1999/xlink" width="48" height="48"><defs><style type="text/css"></style></defs><path d="M685.27104 136.20736c-48.90112-20.53632-107.1104-15.20128-152.42752 19.14368-45.312 34.34496-66.17088 88.94464-59.60704 141.58336 48.90624 20.5312 107.11552 15.20128 152.41728-19.15392 45.31712-34.33984 66.16576-88.93952 59.61728-141.57312z" fill="#84B857" p-id="28945"></path><path d="M261.59616 136.20736c48.90624-20.53632 107.10528-15.20128 152.42752 19.14368 45.312 34.34496 66.16064 88.94464 59.60192 141.58336-48.90112 20.5312-107.10528 15.20128-152.41728-19.15392-45.31712-34.33984-66.176-88.93952-59.61216-141.57312z" fill="#84B857" p-id="28946"></path><path d="M481.46944 30.09536c-46.58176 25.3696-78.76096 74.15808-80.2304 131.00544-1.47968 56.832 28.13952 107.22304 73.34912 134.9632 46.58176-25.36448 78.7712-74.15808 80.2304-131.00032 1.47968-56.832-28.14976-107.22304-73.34912-134.96832z" fill="#84B857" p-id="28947"></path><path d="M835.0976 614.15936c0-30.06464-15.93856-56.34048-39.75168-71.0656 3.0208-8.64256 4.75136-17.89952 4.75136-27.57632 0-14.55104-3.73248-28.22144-10.26048-40.13056a83.328 83.328 0 0 0 24.79104-59.392c0-18.00704-5.74976-34.6368-15.44192-48.28672 0.54784-3.8144 0.91136-7.68512 0.91136-11.65312 0-34.0224-20.36224-63.23712-49.53088-76.28288-5.79072-40.50432-40.51968-71.67488-82.63168-71.67488a83.1488 83.1488 0 0 0-34.72896 7.61856c-15.2576-16.43008-36.992-26.76736-61.17888-26.76736-31.11936 0-58.19904 17.02912-72.59648 42.24512a83.05664 83.05664 0 0 0-67.2256-8.79104c-15.24736-20.32128-39.46496-33.52576-66.82624-33.52576-39.76192 0-72.97024 27.78624-81.43872 64.98304-0.72192-0.02048-1.41824-0.11264-2.1504-0.11264-46.16192 0-83.57888 37.4272-83.57888 83.59424 0 11.2128 2.24256 21.89824 6.2464 31.67232a83.328 83.328 0 0 0-24.42752 59.04896c0 33.34656 19.57888 62.04928 47.8208 75.45856a83.072 83.072 0 0 0-16.53248 49.75616c0 44.39552 34.64192 80.60416 78.3616 83.31776-25.62048 14.2848-42.97216 41.61024-42.97216 73.02144 0 46.17216 37.42208 83.58912 83.58912 83.58912 7.61856 0 14.96064-1.1008 21.97504-3.01568a83.6608 83.6608 0 0 0 55.04512 51.73248 83.7632 83.7632 0 0 0 47.11936 48.17408c11.93984 31.5648 42.35776 54.04672 78.11072 54.04672 6.31808 0 12.45184-0.75776 18.36032-2.08384 12.6208 30.14656 42.38848 51.328 77.12256 51.328 33.96096 0 63.1296-20.2752 76.20096-49.36704 45.05088-1.29536 81.1776-38.10816 81.1776-83.46624 0-23.6544-9.85088-44.97408-25.64096-60.18048 24.13056-14.6432 40.33024-41.10848 40.33024-71.43424 0-14.67904-3.80928-28.4672-10.4704-40.45312 26.9824-13.85472 45.47072-41.90208 45.47072-74.32704z" fill="#9F4B98" p-id="28948"></path><path d="M321.54112 444.80512a45.90592 45.90592 0 0 1-4.72064-4.18304 44.66176 44.66176 0 0 1-12.87168-31.93344 4.54656 4.54656 0 1 1 9.10336 0.08704 35.6352 35.6352 0 0 0 10.2656 25.46688 35.64544 35.64544 0 0 0 25.28256 10.74688 35.67104 35.67104 0 0 0 25.472-10.27072 35.65568 35.65568 0 0 0 10.74176-25.2672 4.5568 4.5568 0 0 1 9.10848 0.08192 44.64128 44.64128 0 0 1-13.48096 31.68256 44.65152 44.65152 0 0 1-31.92832 12.88192 44.63104 44.63104 0 0 1-26.97216-9.2928zM386.48832 661.32992a46.30528 46.30528 0 0 1-4.7104-4.1728 44.71296 44.71296 0 0 1-12.88192-31.93856 4.5568 4.5568 0 0 1 9.10848 0.08192 35.6352 35.6352 0 0 0 10.2656 25.472 35.6864 35.6864 0 0 0 25.27744 10.74688 35.60448 35.60448 0 0 0 25.472-10.27072 35.65056 35.65056 0 0 0 10.74176-25.27744 4.56192 4.56192 0 0 1 4.59776-4.51072c2.5088 0.0256 4.53632 2.08896 4.51072 4.59776a44.65152 44.65152 0 0 1-13.47072 31.68256 44.70272 44.70272 0 0 1-31.93344 12.89216 44.65664 44.65664 0 0 1-26.97728-9.30304zM469.632 725.28896a46.99136 46.99136 0 0 1-4.71552-4.1728 44.71808 44.71808 0 0 1-12.8768-31.93856 4.5568 4.5568 0 1 1 9.10848 0.08192c-0.09728 9.58464 3.54816 18.63168 10.2656 25.472s15.68256 10.6496 25.27744 10.74176a35.6096 35.6096 0 0 0 25.46688-10.26048 35.6864 35.6864 0 0 0 10.74688-25.28256 4.5568 4.5568 0 0 1 9.10848 0.08192 44.672 44.672 0 0 1-13.47072 31.68256 44.6464 44.6464 0 0 1-31.92832 12.88704 44.63616 44.63616 0 0 1-26.9824-9.2928zM653.25056 633.77408a46.46912 46.46912 0 0 1-4.72064-4.17792 44.70784 44.70784 0 0 1-12.87168-31.93856 4.54144 4.54144 0 0 1 4.58752-4.5056 4.5568 4.5568 0 0 1 4.51072 4.58752 35.65056 35.65056 0 0 0 10.27072 25.47712 35.72736 35.72736 0 0 0 25.28256 10.74688 35.65056 35.65056 0 0 0 25.472-10.27072 35.712 35.712 0 0 0 10.74176-25.27744 4.5568 4.5568 0 0 1 9.11872 0.08192 44.7232 44.7232 0 0 1-13.48096 31.68256 44.6464 44.6464 0 0 1-31.92832 12.88704 44.72832 44.72832 0 0 1-26.9824-9.2928zM608.26112 365.0048a44.75904 44.75904 0 0 1-17.59232-36.11136 4.55168 4.55168 0 1 1 9.10848 0.08704 35.58912 35.58912 0 0 0 10.27072 25.46688 35.67104 35.67104 0 0 0 25.27232 10.74688c9.58976 0.09216 18.63168-3.55328 25.472-10.27072s10.6496-15.68768 10.752-25.27744a4.54144 4.54144 0 0 1 4.58752-4.5056 4.56192 4.56192 0 0 1 4.51072 4.59776 44.71296 44.71296 0 0 1-13.46048 31.68256 44.6976 44.6976 0 0 1-31.93856 12.88704 44.76928 44.76928 0 0 1-26.9824-9.30304zM573.88032 841.89696a44.8512 44.8512 0 0 1-4.72064-4.18304 44.65152 44.65152 0 0 1-12.87168-31.93344 4.54656 4.54656 0 1 1 9.09824 0.08192 35.59424 35.59424 0 0 0 10.27072 25.472 35.65568 35.65568 0 0 0 25.27232 10.74176c9.58976 0.09728 18.63168-3.54816 25.472-10.2656s10.6496-15.68768 10.752-25.27232a4.5568 4.5568 0 1 1 9.09824 0.08192 44.63104 44.63104 0 0 1-13.47072 31.68256 44.61056 44.61056 0 0 1-31.92832 12.88192 44.60544 44.60544 0 0 1-26.97216-9.28768zM588.7488 474.52672a45.3888 45.3888 0 0 1-4.72064-4.17792 44.6464 44.6464 0 0 1-12.87168-31.93856 4.53632 4.53632 0 0 1 4.58752-4.51072 4.56192 4.56192 0 0 1 4.51072 4.59776 35.6096 35.6096 0 0 0 10.26048 25.46176 35.6864 35.6864 0 0 0 25.28256 10.74688 35.6352 35.6352 0 0 0 25.472-10.2656 35.6608 35.6608 0 0 0 10.74176-25.27744 4.5568 4.5568 0 0 1 9.10848 0.08704 44.5952 44.5952 0 0 1-13.48096 31.68256 44.5696 44.5696 0 0 1-31.91808 12.88192 44.50304 44.50304 0 0 1-26.97216-9.28768zM446.03392 510.87872a45.87008 45.87008 0 0 1-4.71552-4.17792 44.70784 44.70784 0 0 1-12.8768-31.93344 4.5568 4.5568 0 1 1 9.10336 0.08704 35.63008 35.63008 0 0 0 10.27072 25.46176 35.67616 35.67616 0 0 0 25.27744 10.74688 35.6096 35.6096 0 0 0 25.46688-10.2656 35.6864 35.6864 0 0 0 10.752-25.27744 4.55168 4.55168 0 1 1 9.10336 0.08704 44.65664 44.65664 0 0 1-13.47584 31.68256 44.66688 44.66688 0 0 1-31.92832 12.88704 44.72832 44.72832 0 0 1-26.97728-9.29792z" fill="#CF94C0" p-id="28949"></path></svg>