<?xml version="1.0" standalone="no"?><!DOCTYPE svg PUBLIC "-//W3C//DTD SVG 1.1//EN" "http://www.w3.org/Graphics/SVG/1.1/DTD/svg11.dtd"><svg t="1624543624386" class="icon" viewBox="0 0 1024 1024" version="1.1" xmlns="http://www.w3.org/2000/svg" p-id="32090" xmlns:xlink="http://www.w3.org/1999/xlink" width="48" height="48"><defs><style type="text/css"></style></defs><path d="M512 512m-343.14 0a343.14 343.14 0 1 0 686.28 0 343.14 343.14 0 1 0-686.28 0Z" fill="#FFCC7E" p-id="32091"></path><path d="M512 862a349 349 0 1 1 136.24-27.51A347.88 347.88 0 0 1 512 862z m0-686.27a336.27 336.27 0 1 0 237.78 98.49A334 334 0 0 0 512 175.73z" fill="#A5A171" p-id="32092"></path><path d="M669.17 465.23c0-57.16-38.1-103.5-85.1-103.5-30.64 0-57.49 19.7-72.47 49.25-15.13-28.69-41.56-47.71-71.67-47.71-47 0-85.1 46.33-85.1 103.5 0 47.92 26.79 88.22 63.15 100 3.36 53.42 40 95.5 84.82 95.5 44.26 0 80.62-41.11 84.71-93.64 45.4-2.2 81.66-47.63 81.66-103.4z" fill="#F99400" p-id="32093"></path><path d="M421.83 412.44m-13.78 0a13.78 13.78 0 1 0 27.56 0 13.78 13.78 0 1 0-27.56 0Z" fill="#FDA801" p-id="32094"></path><path d="M404.3 458.78m-13.78 0a13.78 13.78 0 1 0 27.56 0 13.78 13.78 0 1 0-27.56 0Z" fill="#FDA801" p-id="32095"></path><path d="M420.58 500.1m-13.78 0a13.78 13.78 0 1 0 27.56 0 13.78 13.78 0 1 0-27.56 0Z" fill="#FDA801" p-id="32096"></path><path d="M456.9 536.42m-13.78 0a13.78 13.78 0 1 0 27.56 0 13.78 13.78 0 1 0-27.56 0Z" fill="#FDA801" p-id="32097"></path><path d="M469.42 581.5m-13.78 0a13.78 13.78 0 1 0 27.56 0 13.78 13.78 0 1 0-27.56 0Z" fill="#FDA801" p-id="32098"></path><path d="M498.22 619.07m-13.78 0a13.78 13.78 0 1 0 27.56 0 13.78 13.78 0 1 0-27.56 0Z" fill="#FDA801" p-id="32099"></path><path d="M542.06 581.5m-13.78 0a13.78 13.78 0 1 0 27.56 0 13.78 13.78 0 1 0-27.56 0Z" fill="#FDA801" p-id="32100"></path><path d="M563.35 532.66m-13.78 0a13.78 13.78 0 1 0 27.56 0 13.78 13.78 0 1 0-27.56 0Z" fill="#FDA801" p-id="32101"></path><path d="M607.18 496.35m-13.78 0a13.78 13.78 0 1 0 27.56 0 13.78 13.78 0 1 0-27.56 0Z" fill="#FDA801" p-id="32102"></path><path d="M619.7 448.76m-13.78 0a13.78 13.78 0 1 0 27.56 0 13.78 13.78 0 1 0-27.56 0Z" fill="#FDA801" p-id="32103"></path><path d="M594.65 404.93m-13.78 0a13.78 13.78 0 1 0 27.56 0 13.78 13.78 0 1 0-27.56 0Z" fill="#FDA801" p-id="32104"></path><path d="M537.05 426.22m-13.78 0a13.78 13.78 0 1 0 27.56 0 13.78 13.78 0 1 0-27.56 0Z" fill="#FDA801" p-id="32105"></path><path d="M476.93 423.71m-13.78 0a13.78 13.78 0 1 0 27.56 0 13.78 13.78 0 1 0-27.56 0Z" fill="#FDA801" p-id="32106"></path><path d="M453.14 466.29m-13.78 0a13.78 13.78 0 1 0 27.56 0 13.78 13.78 0 1 0-27.56 0Z" fill="#FDA801" p-id="32107"></path><path d="M490.71 503.86m-13.78 0a13.78 13.78 0 1 0 27.56 0 13.78 13.78 0 1 0-27.56 0Z" fill="#FDA801" p-id="32108"></path><path d="M508.24 546.44m-13.78 0a13.78 13.78 0 1 0 27.56 0 13.78 13.78 0 1 0-27.56 0Z" fill="#FDA801" p-id="32109"></path><path d="M558.34 496.35m-13.78 0a13.78 13.78 0 1 0 27.56 0 13.78 13.78 0 1 0-27.56 0Z" fill="#FDA801" p-id="32110"></path><path d="M579.63 452.51m-13.78 0a13.78 13.78 0 1 0 27.56 0 13.78 13.78 0 1 0-27.56 0Z" fill="#FDA801" p-id="32111"></path><path d="M514.5 467.54m-13.78 0a13.78 13.78 0 1 0 27.56 0 13.78 13.78 0 1 0-27.56 0Z" fill="#FDA801" p-id="32112"></path></svg>