<?xml version="1.0" standalone="no"?><!DOCTYPE svg PUBLIC "-//W3C//DTD SVG 1.1//EN" "http://www.w3.org/Graphics/SVG/1.1/DTD/svg11.dtd"><svg t="1624543449423" class="icon" viewBox="0 0 1024 1024" version="1.1" xmlns="http://www.w3.org/2000/svg" p-id="20735" xmlns:xlink="http://www.w3.org/1999/xlink" width="48" height="48"><defs><style type="text/css"></style></defs><path d="M609.2 406.4S444.7 250.3 474.6 220.3c18.9 9.3 129.4 91.2 160.4 115.6 30.2 23.8-126.5-93.4-91.8-211.9 72.7 49.3 122.9 166 117 165.8 8-74-1.3-136.8 24.2-181.7 11-19.4 93.8 134.5 40.7 209.2-27.3 38.3 52.4-80.4 192.3-0.2 10.7 6.1-111.1 74.5-199.6 66.9-10.7-0.9 133.9-13.5 180.5 127.8 7.6 23.1-145.1-63.3-145.1-63.3s98.3 130.6 75.1 176.8c-7.3 14.4-219.1-218.9-219.1-218.9z" fill="#61A36B" p-id="20736"></path><path d="M626.9 386.6c-66.8-41.4-171.7-136.5-300.8-48.3s-205.9 542-172.2 604.3c94 97.7 966.1-274.2 473-556z" fill="#E73651" p-id="20737"></path><path d="M397.2 407.4c-2.9 5-9.4 6.7-14.4 3.8-5-2.9-6.7-9.4-3.8-14.4 2.9-5 19.6-22.1 22.8-20.2 3.2 1.7-1.7 25.8-4.6 30.8zM287.4 538.3c0.7 4.3-2.1 8.3-6.4 9.1-4.3 0.7-8.3-2.1-9.1-6.4-0.7-4.3 0.5-22 3.2-22.5 2.8-0.4 11.6 15.6 12.3 19.8zM606 477.9c7.2 0.4 12.7 6.1 12.4 12.9-0.3 6.8-6.4 12-13.6 11.6-7.2-0.4-35.5-8.5-35.3-12.8 0.2-4.2 29.3-12.1 36.5-11.7zM316.1 686.2c-2.1 3.6-6.8 4.9-10.5 2.7s-4.9-6.8-2.7-10.5c2.1-3.6 14.3-16.1 16.6-14.7 2.2 1.4-1.3 18.9-3.4 22.5zM614.3 659.5c0.1 3.9-3 7.2-6.9 7.3-3.9 0.1-7.2-3-7.3-6.9-0.1-3.9 3.4-19.6 5.9-19.7 2.5-0.1 8.2 15.4 8.3 19.3zM454.9 599.1c-2.8 4.8-9 6.5-13.9 3.6s-6.5-9-3.6-13.9c2.8-4.8 18.9-21.3 22-19.5 3 1.8-1.7 25-4.5 29.8zM257.4 882.5c-0.5 4.6-4.6 8-9.2 7.5s-8-4.6-7.5-9.2 6.8-22.5 9.8-22.2c2.8 0.4 7.3 19.3 6.9 23.9zM439.9 803.5c-0.2 4.6-4.1 8.2-8.7 8s-8.2-4.1-8-8.7c0.2-4.6 5.6-22.8 8.6-22.7 2.8 0.1 8.3 18.8 8.1 23.4z" fill="#4D4D4D" p-id="20738"></path></svg>